<svg width="512" height="512" viewBox="0 0 84 84" fill="none" xmlns="http://www.w3.org/2000/svg">
<path d="M82.734 52.16C77.1246 74.6602 54.3355 88.3534 31.8326 82.7426C9.33916 77.1332 -4.35403 54.3427 1.25784 31.8443C6.86478 9.3416 29.6539 -4.35262 52.1498 1.25678C74.651 6.86619 88.3434 29.6592 82.7334 52.1604L82.7338 52.16H82.734Z" fill="#F3BA2F"/>
<path fill-rule="evenodd" clip-rule="evenodd" d="M42 26.656L31.1244 37.5316L31.1246 37.5312L24.7969 31.2032L42 14L59.2089 31.2084L52.8808 37.5364L42 26.656ZM20.3282 35.6709L14 42L20.3278 48.3269L26.656 41.9986L20.3282 35.6709ZM31.1243 46.469L42 57.344L52.8805 46.4639L59.2119 52.7885L59.2088 52.7919L42 70L24.7968 52.7968L24.7878 52.7878L31.1243 46.469ZM63.6722 35.6744L57.3439 42.0027L63.6719 48.3304L69.9999 42.0022L63.6722 35.6744Z" fill="white"/>
<path d="M48.418 41.9966H48.4207L42 35.5754L37.2541 40.32L36.7089 40.8654L35.5844 41.9901L35.5754 41.9989L35.5844 42.008L42 48.4245L48.4212 42.0033L48.4243 41.9998L48.4185 41.9966" fill="white"/>
</svg>
