<svg width="128" height="128" viewBox="0 0 128 128" fill="none" xmlns="http://www.w3.org/2000/svg">
    <path d="M64 128C99.3462 128 128 99.3462 128 64C128 28.6538 99.3462 0 64 0C28.6538 0 0 28.6538 0 64C0 99.3462 28.6538 128 64 128Z"
          fill="#F6F6F6"/>
    <path d="M83.9461 50.8914C82.5449 50.0908 80.7438 50.0908 79.1426 50.8914L67.9347 57.4961L60.3292 61.6991L49.3215 68.3039C47.9205 69.1043 46.1192 69.1043 44.518 68.3039L35.9119 63.1C34.511 62.2996 33.5101 60.6984 33.5101 58.8971V48.8901C33.5101 47.2888 34.3107 45.6878 35.9119 44.6871L44.518 39.6835C45.919 38.8829 47.7203 38.8829 49.3215 39.6835L57.9275 44.8872C59.3285 45.6878 60.3292 47.2888 60.3292 49.0901V55.6948L67.9347 51.2917V44.4869C67.9347 42.8858 67.134 41.2846 65.533 40.2839L49.5215 30.8773C48.1206 30.0766 46.3193 30.0766 44.7182 30.8773L28.3065 40.484C26.7054 41.2846 25.9048 42.8858 25.9048 44.4869V63.3003C25.9048 64.9013 26.7054 66.5026 28.3065 67.5032L44.518 76.9099C45.919 77.7105 47.7203 77.7105 49.3215 76.9099L60.3292 70.5053L67.9347 66.1022L78.9425 59.6977C80.3435 58.8971 82.1448 58.8971 83.7459 59.6977L92.352 64.7013C93.753 65.5019 94.7537 67.1029 94.7537 68.9042V78.9114C94.7537 80.5125 93.9531 82.1137 92.352 83.1144L83.9461 88.1178C82.5449 88.9184 80.7438 88.9184 79.1426 88.1178L70.5366 83.1144C69.1354 82.3138 68.1347 80.7125 68.1347 78.9114V72.5068L60.5294 76.9099V83.5147C60.5294 85.1157 61.33 86.7168 62.9311 87.7176L79.1426 97.1243C80.5436 97.9249 82.3449 97.9249 83.9461 97.1243L100.158 87.7176C101.559 86.917 102.559 85.3158 102.559 83.5147V64.501C102.559 62.9 101.759 61.2987 100.158 60.2981L83.9461 50.8914Z"
          fill="#8247E5"/>
    <path d="M2 93L92.5097 2.49033L126.451 36.4315L35.9411 126.941L2 93Z" fill="#888888"/>
    <path d="M21.597 93.8343L18.0112 90.2486L34.9055 73.3544L38.4912 76.9401L32.1936 83.2378L49.1782 100.222L44.8793 104.521L27.8947 87.5367L21.597 93.8343Z"
          fill="white"/>
    <path d="M58.2581 91.1425L37.6877 70.5721L51.5486 56.7112L55.1343 60.297L45.6226 69.8088L50.5241 74.7103L59.3227 65.9117L62.9085 69.4974L54.1098 78.2961L59.0214 83.2076L68.5734 73.6557L72.1591 77.2414L58.2581 91.1425Z"
          fill="white"/>
    <path d="M72.0813 48.0105C71.1907 47.2806 70.2164 46.9961 69.1585 47.1568C68.1005 47.3175 67.0492 47.9201 66.0046 48.9647C65.2948 49.6745 64.796 50.3742 64.508 51.0639C64.2134 51.7469 64.1096 52.3931 64.1967 53.0024C64.2904 53.6051 64.5582 54.1274 65.0002 54.5693C65.3551 54.951 65.7535 55.1954 66.1954 55.3025C66.6441 55.403 67.1195 55.403 67.6217 55.3025C68.1172 55.1954 68.6362 55.018 69.1786 54.7702C69.7142 54.5158 70.2566 54.2144 70.8057 53.8662L73.0958 52.4601C74.1939 51.7637 75.2854 51.2079 76.3701 50.7927C77.4549 50.3776 78.5162 50.1399 79.5541 50.0796C80.592 50.0193 81.5931 50.17 82.5573 50.5316C83.5283 50.8865 84.4456 51.4891 85.3094 52.3395C86.5616 53.6051 87.3316 55.018 87.6196 56.5782C87.9075 58.1249 87.71 59.7487 87.027 61.4496C86.344 63.137 85.1655 64.8177 83.4914 66.4917C81.8308 68.1523 80.13 69.3442 78.389 70.0674C76.6547 70.7839 74.9439 70.9881 73.2565 70.6801C71.5691 70.3587 69.9687 69.4748 68.4554 68.0285L72.6639 63.82C73.4004 64.4628 74.1738 64.8411 74.9841 64.955C75.7943 65.0554 76.6112 64.9282 77.4348 64.5733C78.2584 64.205 79.0452 63.6459 79.7952 62.8959C80.5318 62.1593 81.0641 61.4127 81.3922 60.6561C81.727 59.8927 81.8542 59.1695 81.7739 58.4865C81.6935 57.8035 81.4056 57.2143 80.9101 56.7188C80.4481 56.2567 79.9224 56.0056 79.3332 55.9655C78.7506 55.9186 78.0877 56.0458 77.3444 56.3471C76.6079 56.6418 75.7742 57.0737 74.8434 57.6428L72.0411 59.3202C69.885 60.6326 67.8561 61.3424 65.9544 61.4496C64.0527 61.5567 62.3452 60.8469 60.8319 59.3202C59.5797 58.0814 58.8231 56.6619 58.5619 55.0615C58.3075 53.4544 58.5083 51.8005 59.1646 50.0997C59.8208 48.3989 60.8988 46.7985 62.3988 45.2986C63.9255 43.7719 65.5191 42.7005 67.1798 42.0845C68.8471 41.4617 70.4642 41.2977 72.0311 41.5923C73.598 41.8869 75.0041 42.6369 76.2496 43.8422L72.0813 48.0105Z"
          fill="white"/>
    <path d="M76.3425 39.0888L72.7568 35.5031L89.651 18.6088L93.2368 22.1946L86.9391 28.4923L103.924 45.4769L99.6248 49.7758L82.6402 32.7911L76.3425 39.0888Z"
          fill="white"/>
</svg>
