<svg width="128" height="128" viewBox="0 0 128 128" fill="none" xmlns="http://www.w3.org/2000/svg">
    <path d="M64 128.012C99.3463 128.012 128 99.358 128 64.0117C128 28.6655 99.3463 0.0117188 64 0.0117188C28.6537 0.0117188 0 28.6655 0 64.0117C0 99.358 28.6537 128.012 64 128.012Z"
          fill="#ff00af"/>
    <path d="M72.8666 93.8335V34.1978C85.7044 38.0334 95.0889 49.949 95.0889 64.0157C95.0889 78.0823 85.7044 90 72.8666 93.8335ZM63.9778 24.0157V57.7289L58.9 52.6511L58.2511 39.9779L63.5467 24.0378C60.1512 24.0735 56.8712 24.5579 53.731 25.3912L51.1689 33.0956L43.9066 29.4534C41.0333 31.1267 38.3756 33.129 36.0133 35.4423L49.4644 42.1823L49.8578 49.8956L42.1466 49.5L35.4045 36.0512C33.0933 38.4134 31.0889 41.069 29.4156 43.9445L33.06 51.209L25.3512 53.769C24.5199 56.909 24.0355 60.189 24 63.5845L39.9422 58.2889L52.6156 58.9356L57.6933 64.0157L52.6156 69.0956L39.9422 69.7423L24 64.4468C24.0355 67.8423 24.5199 71.1223 25.3512 74.2623L33.06 76.8223L29.4156 84.0867C31.0889 86.9623 33.0933 89.6178 35.4045 91.98L42.1466 78.5312L49.8578 78.1356L49.4644 85.8467L36.0133 92.589C38.3756 94.9001 41.0333 96.9023 43.9066 98.5778L51.1689 94.9356L53.731 102.64C56.8712 103.471 60.1512 103.958 63.5467 103.993L58.2511 88.0533L58.9 75.3801L63.9778 70.3023V104.016C86.0689 104.016 103.978 86.1067 103.978 64.0157C103.978 41.9246 86.0689 24.0157 63.9778 24.0157Z"
          fill="#fff"/>
    <g fill="#fff">
        <path d="M2 93L92.5097 2.49033L126.451 36.4315L35.9411 126.941L2 93Z" fill="#888"/>
        <path d="M21.597 93.8343L18.0112 90.2486L34.9055 73.3544L38.4912 76.9401L32.1936 83.2378L49.1782 100.222L44.8793 104.521L27.8947 87.5367L21.597 93.8343Z"/>
        <path d="M58.2581 91.1425L37.6877 70.5721L51.5486 56.7112L55.1343 60.297L45.6226 69.8088L50.5241 74.7103L59.3227 65.9117L62.9085 69.4974L54.1098 78.2961L59.0214 83.2076L68.5734 73.6557L72.1591 77.2414L58.2581 91.1425Z"/>
        <path d="M72.0813 48.0105C71.1907 47.2806 70.2164 46.9961 69.1585 47.1568C68.1005 47.3175 67.0492 47.9201 66.0046 48.9647C65.2948 49.6745 64.796 50.3742 64.508 51.0639C64.2134 51.7469 64.1096 52.3931 64.1967 53.0024C64.2904 53.6051 64.5582 54.1274 65.0002 54.5693C65.3551 54.951 65.7535 55.1954 66.1954 55.3025C66.6441 55.403 67.1195 55.403 67.6217 55.3025C68.1172 55.1954 68.6362 55.018 69.1786 54.7702C69.7142 54.5158 70.2566 54.2144 70.8057 53.8662L73.0958 52.4601C74.1939 51.7637 75.2854 51.2079 76.3701 50.7927C77.4549 50.3776 78.5162 50.1399 79.5541 50.0796C80.592 50.0193 81.5931 50.17 82.5573 50.5316C83.5283 50.8865 84.4456 51.4891 85.3094 52.3395C86.5616 53.6051 87.3316 55.018 87.6196 56.5782C87.9075 58.1249 87.71 59.7487 87.027 61.4496C86.344 63.137 85.1655 64.8177 83.4914 66.4917C81.8308 68.1523 80.13 69.3442 78.389 70.0674C76.6547 70.7839 74.9439 70.9881 73.2565 70.6801C71.5691 70.3587 69.9687 69.4748 68.4554 68.0285L72.6639 63.82C73.4004 64.4628 74.1738 64.8411 74.9841 64.955C75.7943 65.0554 76.6112 64.9282 77.4348 64.5733C78.2584 64.205 79.0452 63.6459 79.7952 62.8959C80.5318 62.1593 81.0641 61.4127 81.3922 60.6561C81.727 59.8927 81.8542 59.1695 81.7739 58.4865C81.6935 57.8035 81.4056 57.2143 80.9101 56.7188C80.4481 56.2567 79.9224 56.0056 79.3332 55.9655C78.7506 55.9186 78.0877 56.0458 77.3444 56.3471C76.6079 56.6418 75.7742 57.0737 74.8434 57.6428L72.0411 59.3202C69.885 60.6326 67.8561 61.3424 65.9544 61.4496C64.0527 61.5567 62.3452 60.8469 60.8319 59.3202C59.5797 58.0814 58.8231 56.6619 58.5619 55.0615C58.3075 53.4544 58.5083 51.8005 59.1646 50.0997C59.8208 48.3989 60.8988 46.7985 62.3988 45.2986C63.9255 43.7719 65.5191 42.7005 67.1798 42.0845C68.8471 41.4617 70.4642 41.2977 72.0311 41.5923C73.598 41.8869 75.0041 42.6369 76.2496 43.8422L72.0813 48.0105Z"/>
        <path d="M76.3425 39.0888L72.7568 35.5031L89.651 18.6088L93.2368 22.1946L86.9391 28.4923L103.924 45.4769L99.6248 49.7758L82.6402 32.7911L76.3425 39.0888Z"/>
    </g>
</svg>
