<svg width="512" height="512" viewBox="0 0 84 84" fill="none" xmlns="http://www.w3.org/2000/svg">
    <path d="M42 84C65.196 84 84 65.196 84 42C84 18.804 65.196 0 42 0C18.804 0 0 18.804 0 42C0 65.196 18.804 84 42 84Z"
          fill="#627EEA"/>
    <path d="M43.3074 10.5V33.7837L62.987 42.5775L43.3074 10.5Z" fill="white" fill-opacity="0.602"/>
    <path d="M43.3072 10.5L23.625 42.5775L43.3072 33.7837V10.5Z" fill="white"/>
    <path d="M43.3074 57.6662V73.4871L63.0001 46.2422L43.3074 57.6662Z" fill="white" fill-opacity="0.602"/>
    <path d="M43.3072 73.4871V57.6636L23.625 46.2422L43.3072 73.4871Z" fill="white"/>
    <path d="M43.3074 54.0043L62.987 42.5777L43.3074 33.7892V54.0043Z" fill="white" fill-opacity="0.2"/>
    <path d="M23.625 42.5777L43.3072 54.0043V33.7892L23.625 42.5777Z" fill="white" fill-opacity="0.602"/>
</svg>
