<svg width="512" height="512" viewBox="0 0 84 84" fill="none" xmlns="http://www.w3.org/2000/svg">
<path d="M67.9214 14.3728H16.0226V61.5739H67.9214V14.3728Z" fill="white"/>
<path fill-rule="evenodd" clip-rule="evenodd" d="M84 42C84 65.1962 65.1962 84 42 84C18.804 84 0 65.1962 0 42C0 18.804 18.804 0 42 0C65.1962 0 84 18.804 84 42ZM30.0984 58.7139H21.9474C20.2346 58.7139 19.3886 58.7139 18.8727 58.3839C18.3155 58.0226 17.975 57.4242 17.9338 56.7638C17.9028 56.1553 18.3259 55.4122 19.1719 53.9264L39.2978 18.4518C40.1542 16.9454 40.5875 16.1921 41.1343 15.9136C41.7224 15.6144 42.4241 15.6144 43.0122 15.9136C43.559 16.1921 43.9924 16.9454 44.8487 18.4518L48.9862 25.6742L49.0073 25.711C49.9322 27.3271 50.4013 28.1467 50.6061 29.0068C50.833 29.9457 50.833 30.9362 50.6061 31.8751C50.3997 32.7418 49.9354 33.5673 48.9965 35.2078L38.4249 53.8955L38.3975 53.9433C37.4665 55.5727 36.9946 56.3986 36.3407 57.0216C35.6288 57.7027 34.7724 58.1977 33.8334 58.4767C32.977 58.7139 32.0175 58.7139 30.0984 58.7139ZM50.6824 58.7139H62.3619C64.085 58.7139 64.9518 58.7139 65.468 58.3738C66.025 58.0126 66.3757 57.4035 66.407 56.7436C66.4366 56.1547 66.0228 55.4406 65.2119 54.0411C65.1839 53.9935 65.1559 53.945 65.1274 53.8957L59.277 43.8875L59.2105 43.7748C58.3884 42.3846 57.9734 41.6826 57.4404 41.4112C56.8527 41.112 56.1609 41.112 55.573 41.4112C55.0365 41.6898 54.6032 42.4223 53.7468 43.8978L47.9172 53.906L47.8973 53.9405C47.0439 55.4135 46.6174 56.1497 46.6482 56.7537C46.6895 57.4142 47.0299 58.0226 47.5871 58.3839C48.0927 58.7139 48.9594 58.7139 50.6824 58.7139Z" fill="#E84142"/>
</svg>
