<svg width="256" height="256" viewBox="0 0 36 36" xmlns="http://www.w3.org/2000/svg">
    <path d="m0 18c0-9.9411 8.0589-18 18-18 9.9411 0 18 8.0589 18 18 0 9.9411-8.0589 18-18 18-9.9411 0-18-8.0589-18-18z"
          clip-rule="evenodd" fill="#FFE5F7" fill-rule="evenodd"/>
    <g clip-path="url(#a)" fill="#E6007A">
        <path d="m17.999 11.461c2.1182 0 3.8354-0.9987 3.8354-2.2306 0-1.2319-1.7172-2.2306-3.8354-2.2306-2.1181 0-3.8353 0.99867-3.8353 2.2306 0 1.2319 1.7172 2.2306 3.8353 2.2306z"/>
        <path d="m17.999 28.268c2.1182 0 3.8354-0.9987 3.8354-2.2306s-1.7172-2.2306-3.8354-2.2306c-2.1181 0-3.8353 0.9987-3.8353 2.2306s1.7172 2.2306 3.8353 2.2306z"/>
        <path d="m12.654 14.549c1.0591-1.8344 1.0522-3.8211-0.0154-4.4375-1.0675-0.61635-2.7915 0.371-3.8506 2.2053-1.0591 1.8344-1.0522 3.8211 0.01536 4.4375s2.7916-0.371 3.8507-2.2053z"/>
        <path d="m27.208 22.952c1.0591-1.8344 1.0528-3.8208-0.0141-4.4367-1.0668-0.616-2.7902 0.3717-3.8493 2.2061-1.0591 1.8343-1.0528 3.8207 0.014 4.4366 1.0669 0.616 2.7903-0.3717 3.8494-2.206z"/>
        <path d="m12.64 25.157c1.0676-0.6164 1.0744-2.6031 0.0153-4.4374-1.0591-1.8344-2.783-2.8217-3.8506-2.2053-1.0676 0.6163-1.0744 2.603-0.01536 4.4374 1.0591 1.8343 2.7831 2.8217 3.8507 2.2053z"/>
        <path d="m27.195 16.755c1.0669-0.616 1.0732-2.6023 0.0141-4.4367-1.0591-1.8343-2.7825-2.822-3.8494-2.2061-1.0668 0.616-1.0731 2.6024-0.014 4.4367 1.0591 1.8344 2.7825 2.822 3.8493 2.2061z"/>
    </g>
    <defs>
        <clipPath id="a">
            <rect transform="translate(8 7)" width="20" height="21.27" fill="#fff"/>
        </clipPath>
    </defs>
</svg>
