<svg width="128" height="128" viewBox="0 0 128 128" xmlns="http://www.w3.org/2000/svg">
    <path d="M64 128C99.3594 128 128 99.3394 128 64C128 28.6606 99.3594 0 64 0C28.6406 0 0 28.6606 0 64C0 99.3394 28.6651 128 64 128Z"
          fill="#FF060A"/>
    <path d="M99.997 52.5103C96.466 49.2347 91.5618 44.2447 87.5894 40.7134L87.3442 40.5598C86.9518 40.2528 86.5104 39.9969 86.0445 39.8177C76.4322 38.0265 31.7058 29.6587 30.8476 29.7609C30.6024 29.7865 30.3571 29.8889 30.1609 30.0169L29.9403 30.196C29.6706 30.4776 29.4498 30.8102 29.3273 31.1941L29.2782 31.3475V32.192V32.32C34.3051 46.3432 54.1916 92.2511 58.1149 103.05C58.3603 103.792 58.8016 105.174 59.6352 105.251H59.8315C60.2728 105.251 62.1855 102.717 62.1855 102.717C62.1855 102.717 96.3433 61.3132 99.8009 56.9117C100.242 56.3744 100.635 55.7858 100.978 55.1717C101.076 54.6854 101.027 54.1992 100.855 53.7385C100.684 53.278 100.365 52.843 99.997 52.5103ZM70.9149 57.3467L85.4806 45.2684L94.0384 53.15L70.9149 57.3467ZM65.2506 56.5534L40.1655 35.9793L80.7724 43.477L65.2506 56.5534ZM67.5066 61.9273L93.1801 57.7818L63.8284 93.1724L67.5066 61.9273ZM36.7572 38.0521L63.1664 60.4431L59.341 93.198L36.7572 38.0521Z"
          fill="#fff"/>
</svg>
