<svg width="512" height="512" viewBox="0 0 84 84" fill="none" xmlns="http://www.w3.org/2000/svg">
<path d="M42 84C65.2046 84 84 65.1915 84 42C84 18.8085 65.2046 0 42 0C18.7954 0 0 18.8085 0 42C0 65.1915 18.8115 84 42 84Z" fill="#FF060A"/>
<path d="M65.623 34.4599C63.3058 32.3103 60.0874 29.0356 57.4805 26.7182L57.3196 26.6174C57.0621 26.4159 56.7724 26.248 56.4667 26.1304C50.1586 24.9549 20.8069 19.4635 20.2437 19.5306C20.0828 19.5474 19.9218 19.6146 19.7931 19.6986L19.6483 19.8161C19.4713 20.0009 19.3264 20.2192 19.246 20.4711L19.2138 20.5718V21.126V21.21C22.5127 30.4127 35.5632 60.5398 38.1379 67.6266C38.2989 68.1136 38.5885 69.0204 39.1356 69.0708H39.2644C39.554 69.0708 40.8092 67.4083 40.8092 67.4083C40.8092 67.4083 63.2253 40.2368 65.4943 37.3483C65.7839 36.9957 66.0414 36.6094 66.2667 36.2064C66.331 35.8873 66.2989 35.5682 66.1862 35.2659C66.0736 34.9637 65.8644 34.6782 65.623 34.4599ZM46.5379 37.6338L56.0966 29.7074L61.7127 34.8797L46.5379 37.6338ZM42.8207 37.1132L26.3586 23.6114L53.0069 28.5318L42.8207 37.1132ZM44.3012 40.6398L61.1494 37.9193L41.8874 61.1444L44.3012 40.6398ZM24.1219 24.9717L41.4529 39.6658L38.9425 61.1612L24.1219 24.9717Z" fill="white"/>
</svg>
