<svg width="128" height="128" viewBox="0 0 128 128" xmlns="http://www.w3.org/2000/svg">
    <path d="M126.084 79.4824C117.535 113.768 82.8058 134.634 48.5122 126.084C14.2325 117.536 -6.63578 82.8084 1.91712 48.5247C10.462 14.235 45.1918 -6.63274 79.4754 1.91517C113.767 10.4631 134.633 45.1947 126.084 79.4824Z"
          fill="#F7931A"/>
    <path d="M92.2207 54.8823C93.4949 46.3663 87.0102 41.7885 78.1433 38.7345L81.0195 27.1986L73.9968 25.4485L71.1965 36.6804C69.3503 36.2205 67.4541 35.7865 65.5699 35.3565L68.3901 24.0506L61.3715 22.3006L58.4931 33.8325C56.9649 33.4845 55.4649 33.1406 54.0087 32.7785L54.0166 32.7426L44.3316 30.3246L42.4634 37.8245C42.4634 37.8245 47.6739 39.0184 47.5641 39.0924C50.4083 39.8024 50.9224 41.6844 50.8363 43.1764L47.56 56.3183C47.7559 56.3683 48.0101 56.4402 48.29 56.5522C48.0561 56.4943 47.806 56.4302 47.5481 56.3683L42.9555 74.7781C42.6074 75.6421 41.7254 76.9381 39.7372 76.446C39.8071 76.5481 34.6326 75.1721 34.6326 75.1721L31.1462 83.2101L40.2851 85.488C41.9854 85.9139 43.6515 86.3599 45.2918 86.7799L42.3854 98.4478L49.4003 100.198L52.2784 88.6539C54.1946 89.1739 56.0549 89.6539 57.8751 90.1059L55.0068 101.596L62.0296 103.346L64.9358 91.7C76.9111 93.9659 85.9161 93.0519 89.7064 82.222C92.7607 73.502 89.5545 68.4722 83.2538 65.1922C87.8423 64.1342 91.2986 61.1162 92.2207 54.8823ZM76.175 77.3801C74.0048 86.1 59.3212 81.3861 54.5606 80.204L58.4171 64.7462C63.1776 65.9342 78.4433 68.2862 76.175 77.3801ZM78.3472 54.7563C76.367 62.6881 64.1457 58.6583 60.1814 57.6702L63.6777 43.6504C67.6421 44.6385 80.4095 46.4823 78.3472 54.7563Z"
          fill="#fff"/>
    <g fill="#fff">
        <path d="M2 93L92.5097 2.49033L126.451 36.4315L35.9411 126.941L2 93Z" fill="#888"/>
        <path d="M21.597 93.8343L18.0112 90.2486L34.9055 73.3544L38.4912 76.9401L32.1936 83.2378L49.1782 100.222L44.8793 104.521L27.8947 87.5367L21.597 93.8343Z"/>
        <path d="M58.2581 91.1425L37.6877 70.5721L51.5486 56.7112L55.1343 60.297L45.6226 69.8088L50.5241 74.7103L59.3227 65.9117L62.9085 69.4974L54.1098 78.2961L59.0214 83.2076L68.5734 73.6557L72.1591 77.2414L58.2581 91.1425Z"/>
        <path d="M72.0813 48.0105C71.1907 47.2806 70.2164 46.9961 69.1585 47.1568C68.1005 47.3175 67.0492 47.9201 66.0046 48.9647C65.2948 49.6745 64.796 50.3742 64.508 51.0639C64.2134 51.7469 64.1096 52.3931 64.1967 53.0024C64.2904 53.6051 64.5582 54.1274 65.0002 54.5693C65.3551 54.951 65.7535 55.1954 66.1954 55.3025C66.6441 55.403 67.1195 55.403 67.6217 55.3025C68.1172 55.1954 68.6362 55.018 69.1786 54.7702C69.7142 54.5158 70.2566 54.2144 70.8057 53.8662L73.0958 52.4601C74.1939 51.7637 75.2854 51.2079 76.3701 50.7927C77.4549 50.3776 78.5162 50.1399 79.5541 50.0796C80.592 50.0193 81.5931 50.17 82.5573 50.5316C83.5283 50.8865 84.4456 51.4891 85.3094 52.3395C86.5616 53.6051 87.3316 55.018 87.6196 56.5782C87.9075 58.1249 87.71 59.7487 87.027 61.4496C86.344 63.137 85.1655 64.8177 83.4914 66.4917C81.8308 68.1523 80.13 69.3442 78.389 70.0674C76.6547 70.7839 74.9439 70.9881 73.2565 70.6801C71.5691 70.3587 69.9687 69.4748 68.4554 68.0285L72.6639 63.82C73.4004 64.4628 74.1738 64.8411 74.9841 64.955C75.7943 65.0554 76.6112 64.9282 77.4348 64.5733C78.2584 64.205 79.0452 63.6459 79.7952 62.8959C80.5318 62.1593 81.0641 61.4127 81.3922 60.6561C81.727 59.8927 81.8542 59.1695 81.7739 58.4865C81.6935 57.8035 81.4056 57.2143 80.9101 56.7188C80.4481 56.2567 79.9224 56.0056 79.3332 55.9655C78.7506 55.9186 78.0877 56.0458 77.3444 56.3471C76.6079 56.6418 75.7742 57.0737 74.8434 57.6428L72.0411 59.3202C69.885 60.6326 67.8561 61.3424 65.9544 61.4496C64.0527 61.5567 62.3452 60.8469 60.8319 59.3202C59.5797 58.0814 58.8231 56.6619 58.5619 55.0615C58.3075 53.4544 58.5083 51.8005 59.1646 50.0997C59.8208 48.3989 60.8988 46.7985 62.3988 45.2986C63.9255 43.7719 65.5191 42.7005 67.1798 42.0845C68.8471 41.4617 70.4642 41.2977 72.0311 41.5923C73.598 41.8869 75.0041 42.6369 76.2496 43.8422L72.0813 48.0105Z"/>
        <path d="M76.3425 39.0888L72.7568 35.5031L89.651 18.6088L93.2368 22.1946L86.9391 28.4923L103.924 45.4769L99.6248 49.7758L82.6402 32.7911L76.3425 39.0888Z"/>
    </g>
</svg>
