<?xml version="1.0" encoding="UTF-8"?>
<svg fill="none" viewBox="0 0 36 36" xmlns="http://www.w3.org/2000/svg">
    <path d="m0 18c0-9.9411 8.0589-18 18-18 9.9411 0 18 8.0589 18 18 0 9.9411-8.0589 18-18 18-9.9411 0-18-8.0589-18-18z"
          clip-rule="evenodd" fill="#FEFEFE" fill-rule="evenodd"/>
    <g clip-path="url(#a)">
        <path d="m23.615 13.844c-0.4011-0.2291-0.9167-0.2291-1.375 0l-3.2084 1.8907-2.177 1.2031-3.1511 1.8906c-0.401 0.2292-0.9166 0.2292-1.375 0l-2.4635-1.4896c-0.40104-0.2291-0.6875-0.6875-0.6875-1.2031v-2.8646c0-0.4583 0.22917-0.9167 0.6875-1.2031l2.4635-1.4323c0.4011-0.2292 0.9167-0.2292 1.375 0l2.4636 1.4896c0.401 0.2291 0.6875 0.6875 0.6875 1.2031v1.8906l2.177-1.2604v-1.9479c0-0.4583-0.2291-0.9167-0.6875-1.2031l-4.5833-2.6927c-0.401-0.22916-0.9167-0.22916-1.375 0l-4.6979 2.75c-0.45833 0.2291-0.6875 0.6875-0.6875 1.1458v5.3854c0 0.4583 0.22917 0.9167 0.6875 1.2031l4.6406 2.6927c0.4011 0.2292 0.9167 0.2292 1.375 0l3.1511-1.8333 2.177-1.2604 3.1511-1.8333c0.401-0.2292 0.9167-0.2292 1.375 0l2.4635 1.4323c0.4011 0.2291 0.6875 0.6875 0.6875 1.2031v2.8646c0 0.4583-0.2291 0.9166-0.6875 1.2031l-2.4062 1.4323c-0.4011 0.2291-0.9167 0.2291-1.375 0l-2.4636-1.4323c-0.401-0.2292-0.6875-0.6875-0.6875-1.2031v-1.8334l-2.177 1.2604v1.8907c0 0.4583 0.2291 0.9166 0.6875 1.2031l4.6406 2.6927c0.401 0.2292 0.9166 0.2292 1.375 0l4.6406-2.6927c0.401-0.2292 0.6875-0.6875 0.6875-1.2031v-5.4427c0-0.4584-0.2292-0.9167-0.6875-1.2032l-4.6406-2.6927z"
              fill="#8247E5"/>
    </g>
    <defs>
        <clipPath id="a">
            <rect transform="translate(7 8)" width="22" height="19.193" fill="#fff"/>
        </clipPath>
    </defs>
</svg>
