<svg width="256" height="256" viewBox="0 0 48 48" xmlns="http://www.w3.org/2000/svg">
    <defs>
        <linearGradient id="a" x1="38.316" x2="5.1268" y1="39.814" y2="6.6246" gradientUnits="userSpaceOnUse">
            <stop stop-color="#8656EF" offset=".0075166"/>
            <stop stop-color="#1AA3FF" offset=".97"/>
        </linearGradient>
    </defs>
    <path d="m0 24c0-13.255 10.745-24 24-24s24 10.745 24 24-10.745 24-24 24-24-10.745-24-24z" clip-rule="evenodd" fill="#F5F5F5" fill-rule="evenodd"/>
    <path d="m8.2074 22.989c0.49412-7.8898 6.8457-14.261 14.734-14.778 4.1465-0.27194 7.9805 1.0676 10.945 3.4477 0.2877 0.231 0.6998 0.2205 0.9751-0.0252l1.1627-1.0373c0.3449-0.3075 0.3378-0.85276-0.0185-1.1472-3.4578-2.8578-7.9472-4.5099-12.818-4.3045-9.6599 0.4074-17.52 8.1774-18.033 17.833-0.22185 4.1761 0.92336 8.0796 3.0266 11.304 0.25177 0.3862 0.79126 0.4531 1.1355 0.1462l1.1614-1.0363c0.2746-0.245 0.3337-0.6524 0.1371-0.9634-1.7102-2.7058-2.6252-5.9616-2.4074-9.4386zm7.2757 2.1116-0.8696 1.1738c-0.2057 0.407 0.0904 0.8884 0.5466 0.8884h2.8457c0.8998 3.72 3.4911 6.2568 6.963 6.2043 2.4649 0 4.323-1.2255 5.5637-3.6659 0.158-0.3105 0.0195-0.6917-0.2988-0.8339l-1.3573-0.6064c-0.2989-0.1334-0.6511-0.0084-0.796 0.2851-0.6407 1.3001-1.7052 2.1287-3.1116 2.1287-1.2733 0-2.2948-0.6235-3.0773-1.8834-0.3059-0.4877-0.5493-1.0319-0.7345-1.6282h3.6447c0.231 0 0.4424-0.1301 0.5466-0.3361l0.8696-1.1738c0.2057-0.4074-0.0904-0.8884-0.5466-0.8884h-4.9244c-0.0141-0.2525-0.0228-0.5099-0.0228-0.7755-0.0027-0.2632 0.0047-0.5207 0.0185-0.7744h4.0591c0.231 0 0.4424-0.1301 0.5466-0.3362l0.8696-1.1738c0.2057-0.407-0.0904-0.8884-0.5466-0.8884h-4.5186c0.6608-2.1549 2.0406-3.5667 3.8161-3.5388 1.3526 0 2.403 0.7405 3.0766 1.9536 0.151 0.272 0.4908 0.3762 0.7752 0.2504l1.3643-0.6023c0.3264-0.1442 0.4652-0.5388 0.2925-0.8511-1.2592-2.2743-3.0955-3.4168-5.5086-3.4168-2.202 0-3.9661 0.8753-5.3055 2.6131-0.7829 1.0235-1.3281 2.2242-1.6515 3.5919h-1.9818c-0.2309 0-0.4424 0.1301-0.5466 0.3362l-0.8696 1.1738c-0.2057 0.4074 0.0905 0.8884 0.5466 0.8884h2.524c-0.0121 0.2547-0.0238 0.5102-0.0238 0.7744-0.0034 0.2619 3e-3 0.52 0.0141 0.7755h-1.6444c-0.2309 0-0.443 0.1297-0.5472 0.3358zm23.201-11.528c0.3442-0.3068 0.8837-0.2396 1.1355 0.1463 2.1028 3.2242 3.2477 7.1277 3.0262 11.304-0.5123 9.6551-8.3728 17.426-18.033 17.833-4.8709 0.2053-9.3603-1.4464-12.818-4.3046-0.3563-0.2944-0.3634-0.8396-0.0185-1.1472l1.1624-1.0373c0.2753-0.2457 0.6874-0.2561 0.9751-0.0252 2.9647 2.3802 6.7983 3.7196 10.945 3.4477 7.888-0.5173 14.24-6.8884 14.734-14.778 0.2181-3.477-0.6968-6.7331-2.4071-9.439-0.1966-0.3109-0.1374-0.7183 0.1372-0.9634l1.1613-1.0363z" clip-rule="evenodd" fill="url(#a)" fill-rule="evenodd"/>
</svg>
