<svg width="256" height="256" viewBox="0 0 32 32" xmlns="http://www.w3.org/2000/svg">
    <path d="m32 15.991c0 8.836-7.164 16-16 16s-16-7.164-16-16c0-8.836 7.164-16 16-16s16 7.164 16 16z" fill="#FFCCEF"/>
    <path d="m15.97 3.6842 2.579 0.69107-1.2536 4.6766 4.6776 1.254-0.6911 2.5791-5.4375-1.4578-1.8278 1.0561c-0.6372 0.3675-0.8553 1.1812-0.4866 1.8192 0.3675 0.6372 1.1812 0.8552 1.8192 0.4866 1.9142-1.1041 4.3611-0.4483 5.4661 1.4654 1.0684 1.8522 0.489 4.2031-1.2837 5.3559l-0.1812 0.1112-2.058 1.1876-1.4145 5.282-2.5791-0.691 1.2106-4.5244-4.521-1.2099 0.69043-2.5792 5.2756 1.4115 2.0601-1.1883c0.6373-0.3687 0.8557-1.1838 0.4883-1.8208-0.3675-0.6365-1.1821-0.8548-1.8186-0.4877-1.9146 1.1063-4.3624 0.4503-5.4665-1.464-1.0707-1.8528-0.4908-4.2049 1.283-5.3557l0.1814-0.111 1.8333-1.0595 1.4546-5.427z" fill="#FF00AF"/>
</svg>
