<?xml version="1.0" encoding="UTF-8"?>
<svg viewBox="0 0 36 36" xmlns="http://www.w3.org/2000/svg">
    <path d="m0 18c0-9.9411 8.0589-18 18-18 9.9411 0 18 8.0589 18 18 0 9.9411-8.0589 18-18 18-9.9411 0-18-8.0589-18-18z"
          clip-rule="evenodd" fill="#FFE8EB" fill-rule="evenodd"/>
    <path d="m13.023 24.157h-7.3727l7.5322-12.126 2.0034 3.0354-1.2749 2.1248-0.7285-1.0017-3.5818 5.8331h2.1855l9.0947-14.451c4.0991 6.477 6.3973 10.108 10.496 16.585h-13.18l-2.1989-3.4762 1.3097-2.0696 2.1989 3.4116h8.0518l-6.6775-10.623-7.8579 12.757z"
          fill="#CE0E2D"/>
</svg>
