<svg width="512" height="512" viewBox="0 0 84 84" fill="none" xmlns="http://www.w3.org/2000/svg">
<path d="M42 84C65.196 84 84 65.196 84 42C84 18.804 65.196 0 42 0C18.804 0 0 18.804 0 42C0 65.196 18.804 84 42 84Z" fill="#FCFF52"/>
<path d="M63.4704 20.3951H20.3952V63.4703H63.4704V48.4175H56.3136C53.8608 53.8943 48.3168 57.7247 41.9664 57.7247C33.2304 57.7247 26.1408 50.5679 26.1408 41.8991C26.1408 33.1967 33.2304 26.1071 41.9664 26.1071C48.4512 26.1071 53.9952 30.0383 56.448 35.6495H63.4704V20.3951Z" fill="black"/>
</svg>
