<svg width="256" height="256" viewBox="0 0 48 48" xmlns="http://www.w3.org/2000/svg">
    <g clip-path="url(#b)">
        <g clip-path="url(#a)">
            <path d="m24 48c13.255 0 24-10.745 24-24s-10.745-24-24-24-24 10.745-24 24 10.745 24 24 24z" fill="#F1F3F4"/>
            <path d="m32.404 20.926-6e-4 0.0015c1.46 1.8307 2.3325 4.1495 2.3325 6.6715 0 2.5595-0.8986 4.9097-2.3981 6.7528l-0.1291 0.1587-0.0342-0.2017c-0.0291-0.1715-0.0633-0.3447-0.1031-0.5192-0.7504-3.2971-3.1953-6.1244-7.2193-8.4135-2.7173-1.5416-4.2728-3.3979-4.6811-5.507-0.2638-1.3639-0.0677-2.7337 0.3112-3.9071 0.3789-1.1729 0.9424-2.1557 1.4211-2.7473l3e-4 -4e-4 1.5654-1.9141c0.2745-0.3356 0.7882-0.3356 1.0628 0l7.8722 9.6258zm2.4759-1.9124 3e-4 -7e-4 -10.492-12.829c-0.2004-0.24495-0.5754-0.24495-0.7758 0l-10.492 12.829 3e-4 8e-4 -0.0341 0.0423c-1.9308 2.3959-3.0862 5.4406-3.0862 8.755 0 7.7192 6.2679 13.977 14 13.977s14-6.2579 14-13.977c0-3.3144-1.1554-6.3591-3.0862-8.755l-0.0342-0.0425zm-19.249 1.871 4e-4 -5e-4 0.9384-1.1475 0.0284 0.2118c0.0225 0.1678 0.0497 0.3365 0.082 0.5059 0.6073 3.186 2.7764 5.8425 6.403 7.8999 3.1524 1.7942 4.9878 3.8573 5.5167 6.12 0.2206 0.9443 0.2599 1.8734 0.1644 2.6857l-6e-3 0.0502-0.0454 0.0223c-1.4228 0.695-3.0223 1.0852-4.7127 1.0852-5.9292 0-10.736-4.7988-10.736-10.719 0-2.5417 0.886-4.8771 2.3667-6.7144z" clip-rule="evenodd" fill="#4CA2FF" fill-rule="evenodd"/>
        </g>
    </g>
    <defs>
        <clipPath id="b">
            <rect width="48" height="48" fill="#fff"/>
        </clipPath>
        <clipPath id="a">
            <rect width="48" height="48" fill="#fff"/>
        </clipPath>
    </defs>
</svg>
