<svg width="128" height="128" viewBox="0 0 128 128" xmlns="http://www.w3.org/2000/svg">
    <path d="M126.084 79.4824C117.535 113.768 82.8058 134.634 48.5122 126.084C14.2325 117.536 -6.63578 82.8084 1.91712 48.5247C10.462 14.235 45.1918 -6.63274 79.4754 1.91517C113.767 10.4631 134.633 45.1947 126.084 79.4824Z"
          fill="#F7931A"/>
    <path d="M92.2207 54.8823C93.4949 46.3663 87.0102 41.7885 78.1433 38.7345L81.0195 27.1986L73.9968 25.4485L71.1965 36.6804C69.3503 36.2205 67.4541 35.7865 65.5699 35.3565L68.3901 24.0506L61.3715 22.3006L58.4931 33.8325C56.9649 33.4845 55.4649 33.1406 54.0087 32.7785L54.0166 32.7426L44.3316 30.3246L42.4634 37.8245C42.4634 37.8245 47.6739 39.0184 47.5641 39.0924C50.4083 39.8024 50.9224 41.6844 50.8363 43.1764L47.56 56.3183C47.7559 56.3683 48.0101 56.4402 48.29 56.5522C48.0561 56.4943 47.806 56.4302 47.5481 56.3683L42.9555 74.7781C42.6074 75.6421 41.7254 76.9381 39.7372 76.446C39.8071 76.5481 34.6326 75.1721 34.6326 75.1721L31.1462 83.2101L40.2851 85.488C41.9854 85.9139 43.6515 86.3599 45.2918 86.7799L42.3854 98.4478L49.4003 100.198L52.2784 88.6539C54.1946 89.1739 56.0549 89.6539 57.8751 90.1059L55.0068 101.596L62.0296 103.346L64.9358 91.7C76.9111 93.9659 85.9161 93.0519 89.7064 82.222C92.7607 73.502 89.5545 68.4722 83.2538 65.1922C87.8423 64.1342 91.2986 61.1162 92.2207 54.8823ZM76.175 77.3801C74.0048 86.1 59.3212 81.3861 54.5606 80.204L58.4171 64.7462C63.1776 65.9342 78.4433 68.2862 76.175 77.3801ZM78.3472 54.7563C76.367 62.6881 64.1457 58.6583 60.1814 57.6702L63.6777 43.6504C67.6421 44.6385 80.4095 46.4823 78.3472 54.7563Z"
          fill="#fff"/>
</svg>
