<svg width="512" height="512" viewBox="0 0 84 84" fill="none" xmlns="http://www.w3.org/2000/svg">
    <path d="M42 84C65.4159 84 84 65.0443 84 42C84 18.5841 65.0443 0 42 0C18.5841 0 0 18.9558 0 42C0 65.0443 18.9558 84 42 84Z"
          fill="#2C374B"/>
    <path d="M67.8773 29.1674V53.8831C67.8773 55.472 67.0433 56.9096 65.6534 57.7166L44.1986 70.0745C42.8339 70.8563 41.1408 70.8563 39.7762 70.0745L18.3213 57.7166C16.9567 56.9348 16.0975 55.472 16.0975 53.8831V29.1674C16.0975 27.5785 16.9314 26.1409 18.3213 25.3339L39.7762 12.976C41.1408 12.1942 42.8339 12.1942 44.1986 12.976L65.6534 25.3339C67.0181 26.1157 67.852 27.5785 67.852 29.1674H67.8773Z"
          fill="#213147"/>
    <path d="M37.3249 46.317L40.3827 54.6901C40.4585 54.9171 40.4585 55.1693 40.3827 55.4215L35.1264 69.8222L29.0361 66.3166L36.3393 46.317C36.5162 45.8631 37.148 45.8631 37.3249 46.317Z"
          fill="#12AAFF"/>
    <path d="M31.1841 32.244C31.361 31.7901 31.9927 31.7901 32.1696 32.244L35.2274 40.6171C35.3032 40.8441 35.3032 41.0963 35.2274 41.3485L26.6101 64.9294L20.5198 61.4238L31.1841 32.2693V32.244Z"
          fill="#12AAFF"/>
    <path d="M42 13.9091C41.8484 13.9091 41.6968 13.9596 41.5704 14.0352L18.3718 27.4019C18.0939 27.5532 17.9422 27.8559 17.9422 28.1585V54.8919C17.9422 55.1946 18.1191 55.4972 18.3718 55.6485L41.5704 69.0152C41.6968 69.0909 41.8484 69.1413 42 69.1413C42.1516 69.1413 42.3032 69.0909 42.4296 69.0152L65.6282 55.6485C65.9061 55.4972 66.0578 55.1946 66.0578 54.8919V28.1333C66.0578 27.8307 65.8809 27.528 65.6282 27.3767L42.4296 14.01C42.3032 13.9343 42.1516 13.8839 42 13.8839V13.9091ZM42 10C42.8339 10 43.6426 10.2018 44.4007 10.6305L67.5993 23.9972C69.0903 24.8547 70 26.4183 70 28.1333V54.8667C70 56.5817 69.0903 58.1453 67.5993 59.0028L44.4007 72.3695C43.6679 72.7982 42.8339 73 42 73C41.1661 73 40.3574 72.7982 39.5993 72.3695L16.4007 59.0028C14.9097 58.1453 14 56.5817 14 54.8667V28.1333C14 26.4183 14.9097 24.8547 16.4007 23.9972L39.6245 10.6305C40.3574 10.2018 41.1913 10 42.0253 10H42Z"
          fill="#9DCCED"/>
    <path d="M57.3646 64.9545L55.2166 59.1034L50.9206 62.6594L54.9386 66.3416L57.3646 64.9545Z" fill="#213147"/>
    <path d="M43.9711 26.2409H49.8592C50.2888 26.2409 50.6931 26.5183 50.8448 26.9219L63.4549 61.4231L57.3646 64.9287L43.4657 26.9219C43.3393 26.5688 43.592 26.2157 43.9458 26.2157L43.9711 26.2409Z"
          fill="white"/>
    <path d="M33.6606 26.2409H39.5487C39.9783 26.2409 40.3827 26.5183 40.5343 26.9219L54.9386 66.3158L48.8484 69.8214L33.1805 26.9219C33.0541 26.5688 33.3068 26.2157 33.6606 26.2157V26.2409Z"
          fill="white"/>
</svg>
