<svg width="256" height="256" viewBox="0 0 36 36" xmlns="http://www.w3.org/2000/svg">
    <path d="m0 18c0-9.9411 8.0589-18 18-18 9.9411 0 18 8.0589 18 18 0 9.9411-8.0589 18-18 18-9.9411 0-18-8.0589-18-18z"
          clip-rule="evenodd" fill="#F5F5F5" fill-rule="evenodd"/>
    <g clip-path="url(#d)">
        <path d="m11.249 21.964c0.1207-0.1207 0.2866-0.1911 0.4626-0.1911h15.962c0.2917 0 0.4375 0.352 0.2314 0.5582l-3.1532 3.1531c-0.1207 0.1207-0.2866 0.1911-0.4626 0.1911h-15.962c-0.29168 0-0.43752-0.352-0.23133-0.5582l3.1531-3.1531z"
              fill="url(#c)"/>
        <path d="m11.249 10.191c0.1257-0.1207 0.2917-0.1911 0.4626-0.1911h15.962c0.2917 0 0.4375 0.352 0.2314 0.5582l-3.1532 3.1531c-0.1207 0.1207-0.2866 0.1911-0.4626 0.1911h-15.962c-0.29168 0-0.43752-0.352-0.23133-0.5582l3.1532-3.1531z"
              fill="url(#b)"/>
        <path d="m24.751 16.04c-0.1207-0.1207-0.2866-0.1911-0.4626-0.1911h-15.962c-0.29168 0-0.43752 0.3521-0.23133 0.5582l3.1531 3.1532c0.1207 0.1207 0.2866 0.1911 0.4626 0.1911h15.962c0.2917 0 0.4375-0.3521 0.2314-0.5582l-3.1532-3.1532z"
              fill="url(#a)"/>
    </g>
    <defs>
        <linearGradient id="c" x1="26.148" x2="15.102" y1="8.1164" y2="29.276" gradientUnits="userSpaceOnUse">
            <stop stop-color="#00FFA3" offset="0"/>
            <stop stop-color="#DC1FFF" offset="1"/>
        </linearGradient>
        <linearGradient id="b" x1="21.318" x2="10.271" y1="5.5946" y2="26.754" gradientUnits="userSpaceOnUse">
            <stop stop-color="#00FFA3" offset="0"/>
            <stop stop-color="#DC1FFF" offset="1"/>
        </linearGradient>
        <linearGradient id="a" x1="23.718" x2="12.671" y1="6.8475" y2="28.007" gradientUnits="userSpaceOnUse">
            <stop stop-color="#00FFA3" offset="0"/>
            <stop stop-color="#DC1FFF" offset="1"/>
        </linearGradient>
        <clipPath id="d">
            <rect transform="translate(8 10)" width="20" height="15.675" fill="#fff"/>
        </clipPath>
    </defs>
</svg>
