<?xml version="1.0" encoding="UTF-8"?>
<svg viewBox="0 0 84 84" xmlns="http://www.w3.org/2000/svg">
    <circle cx="42" cy="42" r="42" fill="#FF00AF"/>
    <path d="m47.819 61.578v-39.136c8.4248 2.5171 14.583 10.337 14.583 19.568 0 9.2312-6.1586 17.052-14.583 19.568zm-5.8333-45.818v22.124l-3.3323-3.3323-0.4258-8.3168 3.4752-10.461c-2.2283 0.0234-4.3808 0.3413-6.4415 0.8882l-1.6814 5.056-4.7659-2.3902c-1.8856 1.0981-3.6297 2.4121-5.18 3.9302l8.8273 4.4231 0.2582 5.0619-5.0605-0.2596-4.4245-8.8258c-1.5167 1.5502-2.8321 3.2929-3.9302 5.18l2.3916 4.7673-5.0589 1.68c-0.5455 2.0606-0.8634 4.2131-0.8867 6.4414l10.462-3.4752 8.3169 0.4244 3.3322 3.3338-3.3322 3.3337-8.3169 0.4244-10.462-3.4752c0.0233 2.2283 0.3412 4.3808 0.8867 6.4414l5.0589 1.68-2.3916 4.7673c1.0981 1.8871 2.4135 3.6298 3.9302 5.18l4.4245-8.8258 5.0605-0.2596-0.2582 5.0604-8.8273 4.4246c1.5503 1.5167 3.2944 2.8306 5.18 3.9302l4.7659-2.3902 1.6814 5.056c2.0607 0.5455 4.2132 0.8648 6.4415 0.8882l-3.4752-10.461 0.4258-8.3168 3.3323-3.3323v22.124c14.497 0 26.25-11.753 26.25-26.25 0-14.497-11.753-26.25-26.25-26.25z" fill="#fff"/>
</svg>
