<svg width="256" height="256" viewBox="0 0 128 128" fill="none" xmlns="http://www.w3.org/2000/svg">
<path d="M64 128C99.4669 128 128 99.4669 128 64C128 28.5331 99.4669 0 64 0C28.5331 0 0 28.5331 0 64C0 99.4669 28.5331 128 64 128Z" fill="#2775CA"/>
<path d="M81.5999 74.1331C81.5999 64.8 75.9999 61.6 64.7999 60.2669C56.7999 59.2 55.1999 57.0669 55.1999 53.3331C55.1999 49.5994 57.8668 47.2 63.1999 47.2C67.9999 47.2 70.6668 48.8 71.9999 52.8C72.2668 53.6 73.0668 54.1331 73.8668 54.1331H78.1331C79.1999 54.1331 79.9999 53.3331 79.9999 52.2669V52C78.9331 46.1331 74.1331 41.6 67.9999 41.0669V34.6669C67.9999 33.6 67.1999 32.8 65.8668 32.5331H61.8668C60.7999 32.5331 59.9999 33.3331 59.7331 34.6669V40.8C51.7331 41.8669 46.6668 47.2 46.6668 53.8669C46.6668 62.6669 51.9999 66.1331 63.1999 67.4669C70.6668 68.8 73.0668 70.4 73.0668 74.6669C73.0668 78.9338 69.3331 81.8669 64.2668 81.8669C57.3331 81.8669 54.9331 78.9331 54.1331 74.9331C53.8668 73.8669 53.0668 73.3331 52.2668 73.3331H47.7331C46.6668 73.3331 45.8668 74.1331 45.8668 75.2V75.4669C46.9331 82.1331 51.1999 86.9331 59.9999 88.2669V94.6669C59.9999 95.7331 60.7999 96.5331 62.1331 96.8H66.1331C67.1999 96.8 67.9999 96 68.2668 94.6669V88.2669C76.2668 86.9331 81.5999 81.3331 81.5999 74.1331Z" fill="white"/>
<path d="M50.4 102.133C29.6 94.6669 18.9331 71.4669 26.6668 50.9331C30.6668 39.7331 39.4668 31.2 50.4 27.2C51.4668 26.6669 52 25.8669 52 24.5331V20.8C52 19.7331 51.4668 18.9331 50.4 18.6669C50.1331 18.6669 49.6 18.6669 49.3331 18.9331C24 26.9331 10.1331 53.8669 18.1331 79.2C22.9331 94.1331 34.4 105.6 49.3331 110.4C50.4 110.933 51.4668 110.4 51.7331 109.333C52 109.067 52 108.8 52 108.267V104.533C52 103.733 51.2 102.667 50.4 102.133ZM78.6668 18.9331C77.6 18.4 76.5331 18.9331 76.2668 20C76 20.2669 76 20.5331 76 21.0669V24.8C76 25.8669 76.8 26.9331 77.6 27.4669C98.4 34.9331 109.067 58.1331 101.333 78.6669C97.3331 89.8669 88.5331 98.4 77.6 102.4C76.5331 102.933 76 103.733 76 105.067V108.8C76 109.867 76.5331 110.667 77.6 110.933C77.8668 110.933 78.4 110.933 78.6668 110.667C104 102.667 117.867 75.7331 109.867 50.4C105.067 35.2 93.3331 23.7331 78.6668 18.9331Z" fill="white"/>
    <path d="M2 93L92.5097 2.49033L126.451 36.4315L35.9411 126.941L2 93Z" fill="#888888"/>
    <path d="M21.597 93.8343L18.0112 90.2486L34.9055 73.3544L38.4912 76.9401L32.1936 83.2378L49.1782 100.222L44.8793 104.521L27.8947 87.5367L21.597 93.8343Z"
          fill="white"/>
    <path d="M58.2581 91.1425L37.6877 70.5721L51.5486 56.7112L55.1343 60.297L45.6226 69.8088L50.5241 74.7103L59.3227 65.9117L62.9085 69.4974L54.1098 78.2961L59.0214 83.2076L68.5734 73.6557L72.1591 77.2414L58.2581 91.1425Z" fill="white"/>
    <path d="M72.0813 48.0105C71.1907 47.2806 70.2164 46.9961 69.1585 47.1568C68.1005 47.3175 67.0492 47.9201 66.0046 48.9647C65.2948 49.6745 64.796 50.3742 64.508 51.0639C64.2134 51.7469 64.1096 52.3931 64.1967 53.0024C64.2904 53.6051 64.5582 54.1274 65.0002 54.5693C65.3551 54.951 65.7535 55.1954 66.1954 55.3025C66.6441 55.403 67.1195 55.403 67.6217 55.3025C68.1172 55.1954 68.6362 55.018 69.1786 54.7702C69.7142 54.5158 70.2566 54.2144 70.8057 53.8662L73.0958 52.4601C74.1939 51.7637 75.2854 51.2079 76.3701 50.7927C77.4549 50.3776 78.5162 50.1399 79.5541 50.0796C80.592 50.0193 81.5931 50.17 82.5573 50.5316C83.5283 50.8865 84.4456 51.4891 85.3094 52.3395C86.5616 53.6051 87.3316 55.018 87.6196 56.5782C87.9075 58.1249 87.71 59.7487 87.027 61.4496C86.344 63.137 85.1655 64.8177 83.4914 66.4917C81.8308 68.1523 80.13 69.3442 78.389 70.0674C76.6547 70.7839 74.9439 70.9881 73.2565 70.6801C71.5691 70.3587 69.9687 69.4748 68.4554 68.0285L72.6639 63.82C73.4004 64.4628 74.1738 64.8411 74.9841 64.955C75.7943 65.0554 76.6112 64.9282 77.4348 64.5733C78.2584 64.205 79.0452 63.6459 79.7952 62.8959C80.5318 62.1593 81.0641 61.4127 81.3922 60.6561C81.727 59.8927 81.8542 59.1695 81.7739 58.4865C81.6935 57.8035 81.4056 57.2143 80.9101 56.7188C80.4481 56.2567 79.9224 56.0056 79.3332 55.9655C78.7506 55.9186 78.0877 56.0458 77.3444 56.3471C76.6079 56.6418 75.7742 57.0737 74.8434 57.6428L72.0411 59.3202C69.885 60.6326 67.8561 61.3424 65.9544 61.4496C64.0527 61.5567 62.3452 60.8469 60.8319 59.3202C59.5797 58.0814 58.8231 56.6619 58.5619 55.0615C58.3075 53.4544 58.5083 51.8005 59.1646 50.0997C59.8208 48.3989 60.8988 46.7985 62.3988 45.2986C63.9255 43.7719 65.5191 42.7005 67.1798 42.0845C68.8471 41.4617 70.4642 41.2977 72.0311 41.5923C73.598 41.8869 75.0041 42.6369 76.2496 43.8422L72.0813 48.0105Z"
          fill="white"/>
    <path d="M76.3425 39.0888L72.7568 35.5031L89.651 18.6088L93.2368 22.1946L86.9391 28.4923L103.924 45.4769L99.6248 49.7758L82.6402 32.7911L76.3425 39.0888Z"
          fill="white"/>
</svg>
